<svg version="1.1" xmlns="http://www.w3.org/2000/svg" xmlns:xlink="http://www.w3.org/1999/xlink" width="36" height="36" viewBox="0 0 36 36" xml:space="preserve"><defs><path d="M18,36 C8.05884,36 0,27.94116 0,18 C0,8.05884 8.05884,0 18,0 C27.94116,0 36,8.05884 36,18 C36,27.94116 27.94116,36 18,36 Z M18.06,27 C23.06364,27 27.12,22.94364 27.12,17.94 C27.12,12.93636 23.06364,8.88 18.06,8.88 C13.05636,8.88 9,12.93636 9,17.94 C9,22.94364 13.05636,27 18.06,27 Z" id="path-1"></path><path d="M18,36 C8.05884,36 0,27.94116 0,18 C0,8.05884 8.05884,0 18,0 C27.94116,0 36,8.05884 36,18 C36,27.94116 27.94116,36 18,36 Z M18.06,27 C23.06364,27 27.12,22.94364 27.12,17.94 C27.12,12.93636 23.06364,8.88 18.06,8.88 C13.05636,8.88 9,12.93636 9,17.94 C9,22.94364 13.05636,27 18.06,27 Z" id="path-3"></path><path d="M18,36 C8.05884,36 0,27.94116 0,18 C0,8.05884 8.05884,0 18,0 C27.94116,0 36,8.05884 36,18 C36,27.94116 27.94116,36 18,36 Z M18.06,27 C23.06364,27 27.12,22.94364 27.12,17.94 C27.12,12.93636 23.06364,8.88 18.06,8.88 C13.05636,8.88 9,12.93636 9,17.94 C9,22.94364 13.05636,27 18.06,27 Z" id="path-5"></path><path d="M18,36 C8.05884,36 0,27.94116 0,18 C0,8.05884 8.05884,0 18,0 C27.94116,0 36,8.05884 36,18 C36,27.94116 27.94116,36 18,36 Z M18.06,27 C23.06364,27 27.12,22.94364 27.12,17.94 C27.12,12.93636 23.06364,8.88 18.06,8.88 C13.05636,8.88 9,12.93636 9,17.94 C9,22.94364 13.05636,27 18.06,27 Z" id="path-7"></path><path d="M18,36 C8.05884,36 0,27.94116 0,18 C0,8.05884 8.05884,0 18,0 C27.94116,0 36,8.05884 36,18 C36,27.94116 27.94116,36 18,36 Z M18.06,27 C23.06364,27 27.12,22.94364 27.12,17.94 C27.12,12.93636 23.06364,8.88 18.06,8.88 C13.05636,8.88 9,12.93636 9,17.94 C9,22.94364 13.05636,27 18.06,27 Z" id="path-9"></path><path d="M18,36 C8.05884,36 0,27.94116 0,18 C0,8.05884 8.05884,0 18,0 C27.94116,0 36,8.05884 36,18 C36,27.94116 27.94116,36 18,36 Z M18.06,27 C23.06364,27 27.12,22.94364 27.12,17.94 C27.12,12.93636 23.06364,8.88 18.06,8.88 C13.05636,8.88 9,12.93636 9,17.94 C9,22.94364 13.05636,27 18.06,27 Z" id="path-11"></path></defs><g id="Page-1" stroke="none" stroke-width="1" fill="none" fill-rule="evenodd"><g id="logo"><g id="a-link" fill-opacity="0.9" fill-rule="nonzero" fill="#D8D8D8"><path d="M18,36 C8.05884,36 0,27.94116 0,18 C0,8.05884 8.05884,0 18,0 C27.94116,0 36,8.05884 36,18 C36,27.94116 27.94116,36 18,36 Z M18.06,27 C23.06364,27 27.12,22.94364 27.12,17.94 C27.12,12.93636 23.06364,8.88 18.06,8.88 C13.05636,8.88 9,12.93636 9,17.94 C9,22.94364 13.05636,27 18.06,27 Z" id="a"></path></g><g id="Clipped"><mask id="mask-2" fill="white"><use xlink:href="#path-1"></use></mask><g id="a"></g><polygon id="Shape" fill="#FF6FAF" fill-rule="nonzero" mask="url(#mask-2)" points="18 -0.8214 18 18 38.26404 3.94788 22.60416 -2.24952"></polygon></g><g id="Clipped"><mask id="mask-4" fill="white"><use xlink:href="#path-3"></use></mask><g id="a"></g><polygon id="Shape" fill="#00BC7C" fill-rule="nonzero" mask="url(#mask-4)" points="17.97384 17.90808 37.25064 4.44048 37.1436 21.51156 32.2752 33.66 28.6308 32.80272"></polygon></g><g id="Clipped"><mask id="mask-6" fill="white"><use xlink:href="#path-5"></use></mask><g id="a"></g><polygon id="Shape" fill="#FE5A61" fill-rule="nonzero" mask="url(#mask-6)" points="17.98092 17.95848 30.80892 35.21148 18.10164 37.46832 8.45148 34.53108"></polygon></g><g id="Clipped"><mask id="mask-8" fill="white"><use xlink:href="#path-7"></use></mask><g id="a"></g><polygon id="Shape" fill="#40C3F9" fill-rule="nonzero" mask="url(#mask-8)" points="18.07212 17.98092 8.0898 36.12084 -0.38508 27.27324 -0.0378 22.44528"></polygon></g><g id="Clipped"><mask id="mask-10" fill="white"><use xlink:href="#path-9"></use></mask><g id="a"></g><polygon id="Shape" fill="#FFC053" fill-rule="nonzero" mask="url(#mask-10)" points="17.9568 17.988 -3.7296 23.78664 -1.31016 11.016 6.75384 0.53712 18.01908 -1.55904"></polygon></g><g id="Clipped"><mask id="mask-12" fill="white"><use xlink:href="#path-11"></use></mask><g id="a"></g><circle id="Oval" fill-opacity="0.09" fill="#000000" fill-rule="nonzero" mask="url(#mask-12)" cx="18" cy="18" r="11.16"></circle></g><path d="M18.58152,17.17644 C20.53512,17.72136 21.24,18.23988 21.24,19.8342 C21.24,21.6654 20.21712,22.56612 18.68844,22.7346 L18.68628,23.84124 L17.35944,23.84124 L17.35944,22.72608 C16.27092,22.6332 15.09504,22.39704 15.09504,22.39704 L15.24456,21.18336 C15.24456,21.18336 17.07576,21.42864 18.03864,21.42864 C19.19208,21.42864 19.72104,20.91096 19.72104,19.92924 C19.72104,19.13904 19.30044,18.86652 17.8758,18.5256 C15.86844,18.00792 15,17.39436 15,15.7728 C15,14.10216 15.97464,13.30284 17.49504,13.14492 L17.49504,12.12 L18.82464,12.12 L18.82464,13.14708 C19.88808,13.22952 21.03672,13.44192 21.03672,13.44192 L20.91432,14.6688 C20.91432,14.6688 19.01532,14.45088 18.22872,14.45088 C17.08908,14.45088 16.50564,14.8596 16.50564,15.66372 C16.50564,16.53576 16.99404,16.74048 18.58152,17.17644 Z" id="Shape" fill="#4A5560" fill-rule="nonzero"></path></g></g></svg>
