<svg xmlns="http://www.w3.org/2000/svg" xmlns:xlink="http://www.w3.org/1999/xlink" width="22" height="20" viewBox="0 0 22 20"><g fill="none" fill-rule="evenodd"><path fill="currentColor" d="M0 14.99c0-.546.443-.99 1.01-.99h1.98c.558 0 1.01.451 1.01.99v4.02c0 .546-.443.99-1.01.99H1.01C.451 20 0 19.549 0 19.01v-4.02zm6-7.983C6 6.45 6.443 6 7.01 6h1.98C9.549 6 10 6.45 10 7.007v11.986C10 19.55 9.557 20 8.99 20H7.01C6.451 20 6 19.55 6 18.993V7.007zm6 2.989c0-.55.443-.996 1.01-.996h1.98c.558 0 1.01.445 1.01.996v9.008c0 .55-.443.996-1.01.996h-1.98c-.558 0-1.01-.445-1.01-.996V9.996zm6-9.004A.995.995 0 0 1 19.01 0h1.98c.558 0 1.01.455 1.01.992v18.016a.995.995 0 0 1-1.01.992h-1.98c-.558 0-1.01-.455-1.01-.992V.992z"></path></g></svg>
