<svg xmlns="http://www.w3.org/2000/svg" xmlns:xlink="http://www.w3.org/1999/xlink" width="16" height="20" viewBox="0 0 16 20"><g fill="none" fill-rule="evenodd"><path fill="currentColor" d="M0 .992A.994.994 0 0 1 1 0h14c.552 0 1 .455 1 .992V20l-2.623-1.694L10.754 20 7.98 18.306 5.399 20l-2.752-1.694L0 20V.992zM3.006 5.51a1.506 1.506 0 0 0 0-3.01 1.506 1.506 0 0 0 0 3.01zm0 5a1.506 1.506 0 0 0 0-3.01 1.506 1.506 0 0 0 0 3.01zm0 5a1.506 1.506 0 0 0 0-3.01 1.506 1.506 0 0 0 0 3.01zM5.997 9.5h7.993v-1H5.997v1zm0 5.003h7.993v-1H5.997v1zm0-10.006h7.993v-1H5.997v1z"></path></g></svg>
